<svg xmlns="http://www.w3.org/2000/svg" viewBox="0 0 69 100">
  <g fill="">
    <path xmlns="http://www.w3.org/2000/svg" d="M62.733 49.804c-2.098-3.356-3.987-6.294-6.61-9.021 6.19-16.89-9.336-35.563-26.96-35.248 1.26-5.35-6.609-7.868-8.812-2.728-3.252 0-5.455 3.777-3.776 6.504-25.597 15.631-4.616 44.795-11.854 66.72-1.26 1.678-2.308 4.3-.944 6.294C2.937 85.262 1.259 91.66 0 94.389l4.72-.525c1.47-3.671 3.253-10.91 4.302-14.267-.42.42-1.889 1.469-1.784.105 11.96-21.19-15-56.858 15.736-69.027-.524-1.469-1.574-2.413-2.727-3.462.104-1.259 2.622 0 3.252.735-.21-1.469-.105-3.357 1.154-3.987.944 1.26-.105 4.301 1.573 5.875 14.477-2.413 29.478 11.75 26.856 26.436-5.246-11.12-8.078-12.589-17.94-3.987-17.098 4.93-.209 16.05 6.085 22.345-5.245 1.259-11.749.315-15.42-3.672.42 4.511 10.385 6.61 14.581 7.763-1.678 4.092-3.462 8.707-1.049 12.799-.105 1.783-1.573-.105-1.783-.944.944 5.245-.315 16.574-.84 21.925l4.616-.525c.315-3.672.944-13.323.63-16.89 2.727-2.412.944-5.245.21-8.182.42-2.098 1.993-6.4 2.937-8.707 4.3 4.406 11.015 6.399 16.365 2.518.734-.42.84-1.47.524-2.099 3.567-1.573 3.672-6.713.735-8.812zm-17.624 2.623c-3.777-3.776-8.392-8.707-11.12-12.169 1.678 5.56 7.133 9.127 10.7 13.533 3.987 4.93 10.28 6.294 15.946 5.77-7.763 5.56-14.897-2.413-19.932-7.763-3.672-4.197-12.484-7.658-9.861-14.372 1.259-2.413 4.091-2.938 6.399-3.987 13.218-13.008 11.435 4.197 20.351 11.12 1.679 3.357 5.56 6.4 5.875 10.071-3.357 6.714-14.372 1.993-18.358-2.203z"/>
    <path xmlns="http://www.w3.org/2000/svg" d="M29.793 85.472c-.525-.42-.525-2.413-1.154-2.203.21.944 0 2.937.944 3.357 1.993-.525 1.993-3.777 1.259-5.245-.42 1.154 0 3.042-1.05 4.09zm-1.888-60.11c-2.203.21-3.148 4.3-.105 4.72 3.566.525 3.461-4.72.105-4.72zm18.043-4.092c-1.678.315-2.727 3.148-2.623 4.302 1.47-.735 2.938-.525 4.406-.735 1.364-1.783-2.517-.944-3.252-.314.21-1.05 3.357-3.043 1.47-3.253zm-1.573 15.736c1.993.525.104-2.832-.42-3.567-2.203-.944-.525 3.043.42 3.567z"/>
  </g>
</svg>