<?xml version="1.0" encoding="UTF-8"?>
<svg version="1.1" xmlns="http://www.w3.org/2000/svg" width="173" height="173">
<path d="M0 0 C10.46687083 0.88922088 22.84475313 14.2925161 29.41015625 21.73046875 C31.65766225 24.45073895 33.84039899 27.20964512 36 30 C36.79857422 30.98226562 36.79857422 30.98226562 37.61328125 31.984375 C52.28980139 50.49815243 61.38430674 75.26170288 60 99 C66.61714893 93.8435515 71.29805919 87.91535443 76 81 C77.32 81.66 78.64 82.32 80 83 C80.9362051 102.74960667 78.5847246 120.31388738 65.01049805 135.72705078 C62.73588378 138.21758274 60.38348937 140.6130055 58 143 C57.3915625 143.62003906 56.783125 144.24007812 56.15625 144.87890625 C48.96343222 151.63098765 39.61200483 155.39799919 30 157 C28.53671577 152.54186071 30.08219158 150.20442614 32 146 C36.66362592 129.88929227 28.09504658 114.27154402 20.65625 100.5546875 C18.71058013 97.09804842 16.62982226 93.9895621 14 91 C9.37161619 98.07798056 5.23500769 105.22558193 1.625 112.875 C1.29177734 113.5755249 0.95855469 114.2760498 0.61523438 114.99780273 C-4.1895574 125.38804163 -6.43390632 137.01311296 -2.5 148.125 C-2.22542969 148.80691406 -1.95085937 149.48882812 -1.66796875 150.19140625 C-0.81239186 152.50796825 -0.76346508 154.55580583 -1 157 C-13.63740345 154.89376609 -23.07924595 149.0606265 -32 140 C-32.63679688 139.36191406 -33.27359375 138.72382813 -33.9296875 138.06640625 C-47.74270512 123.30182519 -51.63639191 105.23673898 -51.33984375 85.67578125 C-50.88959588 74.44574002 -46.75958991 62.34980481 -39 54 C-37.68 54 -36.36 54 -35 54 C-34.75765625 55.26714844 -34.5153125 56.53429688 -34.265625 57.83984375 C-31.83387954 70.3055914 -31.83387954 70.3055914 -27 82 C-26.67128906 81.48953125 -26.34257813 80.9790625 -26.00390625 80.453125 C-21.09249876 72.94625826 -15.84447247 65.63246993 -10.11328125 58.7265625 C-1.6015822 48.43601398 4.57072752 36.02964701 4.26171875 22.45703125 C3.73515872 17.51365428 2.35456139 12.77069914 1 8 C0.78730469 7.23429688 0.57460937 6.46859375 0.35546875 5.6796875 C-0.08440893 4.1163812 -0.53984212 2.55745744 -1 1 C-0.67 0.67 -0.34 0.34 0 0 Z " fill="#FD5664" transform="translate(71,7)"/>
</svg>
